<svg width="2527" height="511" viewBox="0 0 2527 511" fill="none" xmlns="http://www.w3.org/2000/svg">
<g clip-path="url(#clip0_29_2)">
<g filter="url(#filter0_i_29_2)">
<path d="M250 499C388.071 499 500 387.071 500 249C500 110.929 388.071 -1 250 -1C111.929 -1 0 110.929 0 249C0 387.071 111.929 499 250 499Z" fill="white"/>
</g>
<g filter="url(#filter1_d_29_2)">
<path d="M208 495.5C208 495.5 229.5 500 259 499C283.509 498.169 302.5 493.5 302.5 493.5C302.5 493.5 250.142 446.441 247 374.474C244.756 283.097 339.822 252.369 336 164.827C331.685 66.007 265.5 28.5 265.5 28.5C265.5 28.5 313.283 79.0402 308 164.827C303.249 241.982 185.68 267.532 190.349 374.474C193.562 448.052 208 495.5 208 495.5Z" fill="#121212"/>
<path d="M259.637 35.8878C266.938 42.4123 277.297 42.4853 277.297 42.4853C277.297 42.4853 275.82 31.9797 268.52 25.4552C261.219 18.9302 250.86 18.8572 250.86 18.8572C250.86 18.8572 252.337 29.3627 259.637 35.8878Z" fill="#121212"/>
<path d="M268.371 28.048C270.609 37.58 279.053 43.5817 279.053 43.5817C279.053 43.5817 283.869 34.1287 281.631 24.5969C279.393 15.0643 270.949 9.06274 270.949 9.06274C270.949 9.06274 266.133 18.5156 268.371 28.048Z" fill="#121212"/>
<path d="M248.757 408.249C248.757 408.249 247.084 421.071 252.659 432.221C258.234 443.371 267.712 451.734 267.712 451.734C267.712 451.734 327.718 410.887 352.907 373.34C372.024 344.846 369.459 321.634 388.131 292.847C403.423 269.27 434.961 238.212 434.961 238.212C434.961 238.212 390.584 260.843 369.734 283.927C348.074 307.906 351.618 332.488 330.002 356.506C304.838 384.466 248.757 408.249 248.757 408.249Z" fill="#121212"/>
<path d="M359.699 361.419C359.699 361.419 353.84 366.76 351.336 370.896C348.832 375.033 345.204 383.719 345.204 383.719C345.204 383.719 380.34 385.981 400.396 378.701C428.523 368.491 451.128 325.181 451.128 325.181C451.128 325.181 420.894 360.174 394.264 364.206C380.445 366.299 359.699 361.419 359.699 361.419Z" fill="#121212"/>
<path d="M434.423 318.949C434.762 329.133 442.154 336.98 442.154 336.98C442.154 336.98 448.997 328.316 448.658 318.132C448.319 307.948 440.927 300.101 440.927 300.101C440.927 300.101 434.084 308.765 434.423 318.949Z" fill="#121212"/>
<path d="M407.506 289.851C397.871 293.165 387.904 289.056 387.904 289.056C387.904 289.056 393.559 279.574 403.194 276.26C412.829 272.945 422.796 277.053 422.796 277.053C422.796 277.053 417.142 286.536 407.506 289.851Z" fill="#121212"/>
<path d="M432.374 228.424C422.539 236.517 420.392 249.82 420.392 249.82C420.392 249.82 434.191 250.004 444.026 241.911C453.862 233.818 456.009 220.515 456.009 220.515C456.009 220.515 442.21 220.332 432.374 228.424Z" fill="#121212"/>
<path d="M419.525 224.065C416.11 236.335 421.982 248.465 421.982 248.465C421.982 248.465 433.391 240.7 436.806 228.43C440.221 216.159 434.349 204.029 434.349 204.029C434.349 204.029 422.94 211.794 419.525 224.065Z" fill="#121212"/>
<path d="M454.237 321.891C445.468 326.156 440.45 336.745 440.45 336.745C440.45 336.745 449.65 340.421 458.42 336.157C467.189 331.892 472.207 321.303 472.207 321.303C472.207 321.303 463.007 317.627 454.237 321.891Z" fill="#121212"/>
<path d="M202.997 315.806C202.997 315.806 207.082 323.392 202.997 336.23C198.913 349.067 193.077 365.407 193.077 365.407C193.077 365.407 166.925 338.785 140.559 299.485C120.55 269.659 127.425 243.235 107.881 213.103C91.8744 188.425 54.6732 158.044 54.6732 158.044C54.6732 158.044 101.123 181.733 122.947 205.894C145.619 230.994 141.909 256.724 164.535 281.864C190.874 311.13 202.997 315.806 202.997 315.806Z" fill="#121212"/>
<path d="M133.451 287.006C133.451 287.006 139.583 292.596 142.204 296.926C144.825 301.256 148.623 310.347 148.623 310.347C148.623 310.347 111.845 312.716 90.8526 305.095C61.4113 294.409 37.7506 249.076 37.7506 249.076C37.7506 249.076 69.3976 285.703 97.2715 289.923C111.736 292.113 133.451 287.006 133.451 287.006Z" fill="#121212"/>
<path d="M156.751 233.369C152.771 243.264 142.691 248.336 142.691 248.336C142.691 248.336 139.062 237.364 143.041 227.469C147.021 217.574 157.101 212.502 157.101 212.502C157.101 212.502 160.729 223.473 156.751 233.369Z" fill="#121212"/>
<path d="M55.9177 156.701C68.4092 161.359 75.0678 173.794 75.0678 173.794C75.0678 173.794 61.4734 178.677 48.982 174.02C36.4897 169.362 29.8311 156.928 29.8311 156.928C29.8311 156.928 43.4256 152.044 55.9177 156.701Z" fill="#121212"/>
<path d="M81.8291 157.054C81.1732 166.554 74.0078 173.637 74.0078 173.637C74.0078 173.637 67.9052 165.317 68.5607 155.817C69.2164 146.317 76.3817 139.234 76.3817 139.234C76.3817 139.234 82.4843 147.553 81.8291 157.054Z" fill="#121212"/>
<path d="M66.1698 309.508C75.0977 308.457 84.164 300.375 84.164 300.375C84.164 300.375 78.7556 293.995 69.8282 295.045C60.9 296.095 51.8336 304.178 51.8336 304.178C51.8336 304.178 57.242 310.558 66.1698 309.508Z" fill="#121212"/>
<path d="M39.7106 246.357C49.6901 253.459 53.7109 267.617 53.7109 267.617C53.7109 267.617 41.5515 270.263 31.5721 263.163C21.5919 256.062 17.5711 241.903 17.5711 241.903C17.5711 241.903 29.7305 239.257 39.7106 246.357Z" fill="#121212"/>
<path d="M238.539 277.814C238.539 277.814 242.725 253.894 237.941 238.944C229.33 212.033 185.085 196.485 178.739 151.036C173.745 115.277 205.649 80.4717 205.649 80.4717C205.649 80.4717 188.905 118.311 198.473 149.84C208.041 181.37 259.249 206.402 265.45 219.807C271.536 232.963 271.536 247.567 271.536 247.567C271.536 247.567 264.804 255.847 256.48 264.06C248.002 272.424 238.539 277.814 238.539 277.814Z" fill="#121212"/>
<path d="M184.239 70.9842C186.736 84.4163 198.113 93.3329 198.113 93.3329C198.113 93.3329 205.443 80.4716 202.946 67.0398C200.449 53.607 189.072 44.6904 189.072 44.6904C189.072 44.6904 181.742 57.5517 184.239 70.9842Z" fill="#121212"/>
<path d="M223.718 91.3083C211.45 97.3197 197.505 93.5107 197.505 93.5107C197.505 93.5107 203.452 79.9545 215.72 73.9428C227.989 67.9307 241.934 71.7397 241.934 71.7397C241.934 71.7397 235.987 85.2958 223.718 91.3083Z" fill="#121212"/>
<path d="M169.201 168.831C161.818 162.45 160.419 152.221 160.419 152.221C160.419 152.221 170.992 152.336 178.376 158.716C185.76 165.097 187.158 175.327 187.158 175.327C187.158 175.327 176.585 175.212 169.201 168.831Z" fill="#121212"/>
<path d="M318.9 213.894L275.725 288.58C302.852 249.457 405.977 162.602 405.977 162.602C405.977 162.602 342.344 196.683 318.9 213.894Z" fill="#121212"/>
<path d="M412.995 175.593C400.021 179.755 386.809 173.984 386.809 173.984C386.809 173.984 394.634 161.464 407.608 157.302C420.583 153.139 433.795 158.91 433.795 158.91C433.795 158.91 425.97 171.429 412.995 175.593Z" fill="#121212"/>
<path d="M386.879 148.956C382.717 161.931 388.488 175.143 388.488 175.143C388.488 175.143 401.008 167.318 405.17 154.344C409.333 141.369 403.563 128.157 403.563 128.157C403.563 128.157 391.043 135.982 386.879 148.956Z" fill="#121212"/>
</g>
<path d="M632.17 100.562C646.184 100.562 658.146 105.519 668.059 115.431C678.085 125.343 683.098 137.306 683.098 151.319C683.098 165.447 675.863 178.606 661.394 190.797C674.154 193.417 686.174 200.937 697.453 213.355C715.682 231.699 724.797 253.858 724.797 279.835C724.797 305.698 715.682 328.085 697.453 346.998C680.477 364.544 660.197 373.487 636.613 373.829V374H583.635V100.562H632.17ZM599.016 202.247V358.619H636.613V358.79C655.64 357.537 672.046 349.732 685.832 335.377C700.985 319.768 708.562 301.254 708.562 279.835C708.562 258.416 700.985 240.13 685.832 224.977C670.679 209.824 652.393 202.247 630.974 202.247H599.016ZM599.016 115.943V185.841H636.101C644.646 185.043 651.937 181.853 657.976 176.271C664.925 169.89 668.4 161.573 668.4 151.319C668.4 141.065 664.925 132.634 657.976 126.026C651.026 119.304 642.424 115.943 632.17 115.943H599.016ZM793.812 206.178H809.193V236.769C812.383 232.211 816.086 227.825 820.302 223.609C833.86 210.051 847.759 202.931 862.001 202.247V218.995C852.317 219.451 842.291 224.863 831.923 235.23C817.34 249.7 809.763 267.075 809.193 287.354V374H793.812V206.178ZM946.568 206.178V374H931.188V206.178H946.568ZM938.878 146.705C943.093 146.705 946.682 148.186 949.645 151.148C952.721 154.111 954.259 157.7 954.259 161.915C954.259 166.244 952.721 169.89 949.645 172.853C946.682 175.815 943.093 177.296 938.878 177.296C934.662 177.296 931.017 175.815 927.94 172.853C924.978 169.89 923.497 166.244 923.497 161.915C923.497 157.7 924.978 154.111 927.94 151.148C931.017 148.186 934.662 146.705 938.878 146.705ZM1210.41 374H1195.03V339.82C1192.07 343.808 1188.82 347.625 1185.29 351.271C1166.94 369.614 1144.78 378.785 1118.81 378.785C1092.94 378.785 1070.84 369.614 1052.5 351.271C1034.15 332.927 1024.98 310.825 1024.98 284.962C1024.98 258.985 1034.15 236.826 1052.5 218.482C1070.84 200.139 1092.94 190.968 1118.81 190.968C1144.78 190.968 1166.94 200.139 1185.29 218.482C1188.82 222.128 1192.07 225.945 1195.03 229.933V206.178H1210.41V374ZM1195.03 300.172V269.752C1192.18 254.713 1185.06 241.497 1173.67 230.104C1158.51 214.951 1140.23 207.374 1118.81 207.374C1097.39 207.374 1079.1 214.951 1063.95 230.104C1048.8 245.257 1041.22 263.543 1041.22 284.962C1041.22 306.381 1048.8 324.667 1063.95 339.82C1079.1 354.859 1097.39 362.379 1118.81 362.379C1140.23 362.379 1158.51 354.802 1173.67 339.649C1185.06 328.256 1192.18 315.097 1195.03 300.172ZM1305.06 243.604V374H1289.68V206.178H1305.06V216.944C1319.07 203.045 1335.36 196.095 1353.94 196.095C1373.76 196.095 1389.88 202.304 1402.3 214.723C1414.72 227.141 1421.1 242.807 1421.44 261.72V374H1406.06V263.087C1406.06 248.845 1400.88 236.712 1390.51 226.686C1380.25 216.546 1368.06 211.476 1353.94 211.476C1339.81 211.476 1327.62 216.432 1317.36 226.344C1311.78 231.926 1307.68 237.68 1305.06 243.604ZM1500.88 374V100.562H1516.26V358.619H1622.22V374H1500.88ZM1712.25 342.555C1726.72 355.771 1743.93 362.379 1763.87 362.379C1785.29 362.379 1803.57 354.802 1818.72 339.649C1820.66 337.713 1822.48 335.719 1824.19 333.668L1840.43 339.479C1837.47 343.58 1834.11 347.511 1830.35 351.271C1812 369.614 1789.84 378.785 1763.87 378.785C1738 378.785 1715.9 369.614 1697.56 351.271C1679.21 332.927 1670.04 310.768 1670.04 284.791C1670.04 258.928 1679.21 236.826 1697.56 218.482C1715.9 200.139 1738 190.968 1763.87 190.968C1786.08 190.968 1805.51 197.633 1822.14 210.963C1824.88 213.242 1827.61 215.748 1830.35 218.482C1831.37 219.508 1832.34 220.533 1833.25 221.559L1821.63 233.18L1712.25 342.555ZM1810.35 222.755C1797.02 212.501 1781.53 207.374 1763.87 207.374C1742.56 207.374 1724.33 214.951 1709.18 230.104C1694.03 245.143 1686.45 263.372 1686.45 284.791C1686.45 302.451 1691.58 317.945 1701.83 331.275L1810.35 222.755ZM1990.28 329.566V206.178H2005.66V325.807C2005.66 335.833 2009.02 344.207 2015.74 350.929C2022.58 357.651 2030.73 361.012 2040.18 361.012C2049.64 361.012 2057.78 357.651 2064.62 350.929C2070.89 344.662 2074.25 337.086 2074.7 328.199H2074.53V206.178H2089.91V328.199C2089.46 341.301 2084.62 352.467 2075.39 361.695C2065.7 371.493 2053.97 376.393 2040.18 376.393C2026.4 376.393 2014.66 371.493 2004.98 361.695C2002.36 359.075 2000.08 356.34 1998.14 353.492C1996.2 356.34 1993.87 359.075 1991.13 361.695C1981.45 371.493 1969.71 376.393 1955.93 376.393C1942.14 376.393 1930.41 371.493 1920.72 361.695C1911.5 352.467 1906.65 341.301 1906.2 328.199V206.178H1921.58V328.199H1921.41C1921.86 337.086 1925.28 344.662 1931.66 350.929C1938.38 357.651 1946.47 361.012 1955.93 361.012C1965.39 361.012 1973.53 357.651 1980.37 350.929C1986.18 345.118 1989.48 337.997 1990.28 329.566ZM2229.68 358.961L2191.74 438.087H2176.7L2221.99 343.067L2156.54 206.178H2173.97L2229.68 326.49L2285.39 206.178H2302.65L2229.68 359.132V358.961ZM2384.66 243.604V374H2369.28V206.178H2384.66V216.944C2398.67 203.045 2414.96 196.095 2433.54 196.095C2453.36 196.095 2469.48 202.304 2481.9 214.723C2494.32 227.141 2500.7 242.807 2501.04 261.72V374H2485.66V263.087C2485.66 248.845 2480.48 236.712 2470.11 226.686C2459.85 216.546 2447.66 211.476 2433.54 211.476C2419.41 211.476 2407.22 216.432 2396.96 226.344C2391.38 231.926 2387.28 237.68 2384.66 243.604Z" fill="white"/>
<path d="M668.059 115.431L660.988 122.502L661.008 122.522L661.028 122.542L668.059 115.431ZM661.394 190.797L654.95 183.149L639.173 196.442L659.382 200.592L661.394 190.797ZM697.453 213.355L690.051 220.079L690.202 220.245L690.36 220.404L697.453 213.355ZM697.453 346.998L704.64 353.951L704.647 353.945L704.653 353.938L697.453 346.998ZM636.613 373.829L636.468 363.83L626.613 363.973V373.829H636.613ZM636.613 374V384H646.613V374H636.613ZM583.635 374H573.635V384H583.635V374ZM583.635 100.562V90.5625H573.635V100.562H583.635ZM599.016 202.247V192.247H589.016V202.247H599.016ZM599.016 358.619H589.016V368.619H599.016V358.619ZM636.613 358.619H646.613V348.619H636.613V358.619ZM636.613 358.79H626.613V369.47L637.271 368.768L636.613 358.79ZM685.832 335.377L678.657 328.411L678.638 328.431L678.619 328.45L685.832 335.377ZM599.016 115.943V105.943H589.016V115.943H599.016ZM599.016 185.841H589.016V195.841H599.016V185.841ZM636.101 185.841V195.841H636.566L637.03 195.798L636.101 185.841ZM657.976 176.271L651.213 168.904L651.2 168.916L651.187 168.928L657.976 176.271ZM657.976 126.026L651.023 133.214L651.054 133.244L651.085 133.273L657.976 126.026ZM632.17 110.562C643.531 110.562 652.95 114.464 660.988 122.502L675.13 108.36C663.343 96.5728 648.837 90.5625 632.17 90.5625V110.562ZM661.028 122.542C669.167 130.588 673.098 139.996 673.098 151.319H693.098C693.098 134.615 687.002 120.097 675.089 108.319L661.028 122.542ZM673.098 151.319C673.098 161.58 667.976 172.175 654.95 183.149L667.837 198.444C683.75 185.037 693.098 169.314 693.098 151.319H673.098ZM659.382 200.592C669.537 202.678 679.786 208.777 690.051 220.079L704.856 206.632C692.562 193.096 678.771 184.157 663.405 181.001L659.382 200.592ZM690.36 220.404C706.718 236.865 714.797 256.486 714.797 279.835H734.797C734.797 251.23 724.647 226.533 704.546 206.306L690.36 220.404ZM714.797 279.835C714.797 303.064 706.717 322.977 690.253 340.058L704.653 353.938C724.647 333.194 734.797 308.331 734.797 279.835H714.797ZM690.266 340.045C675.067 355.754 657.291 363.528 636.468 363.83L636.758 383.828C663.103 383.446 685.887 373.333 704.64 353.951L690.266 340.045ZM626.613 373.829V374H646.613V373.829H626.613ZM636.613 364H583.635V384H636.613V364ZM593.635 374V100.562H573.635V374H593.635ZM583.635 110.562H632.17V90.5625H583.635V110.562ZM589.016 202.247V358.619H609.016V202.247H589.016ZM599.016 368.619H636.613V348.619H599.016V368.619ZM626.613 358.619V358.79H646.613V358.619H626.613ZM637.271 368.768C658.904 367.343 677.614 358.372 693.045 342.303L678.619 328.45C666.478 341.093 652.376 347.73 635.956 348.812L637.271 368.768ZM693.007 342.343C709.94 324.9 718.562 303.9 718.562 279.835H698.562C698.562 298.608 692.03 314.636 678.657 328.411L693.007 342.343ZM718.562 279.835C718.562 255.762 709.93 234.933 692.903 217.905L678.761 232.048C692.04 245.326 698.562 261.069 698.562 279.835H718.562ZM692.903 217.905C675.876 200.878 655.047 192.247 630.974 192.247V212.247C649.739 212.247 665.482 218.769 678.761 232.048L692.903 217.905ZM630.974 192.247H599.016V212.247H630.974V192.247ZM589.016 115.943V185.841H609.016V115.943H589.016ZM599.016 195.841H636.101V175.841H599.016V195.841ZM637.03 195.798C647.66 194.805 657.039 190.755 664.764 183.613L651.187 168.928C646.835 172.951 641.631 175.281 635.171 175.884L637.03 195.798ZM664.738 183.637C673.943 175.187 678.4 164.102 678.4 151.319H658.4C658.4 159.045 655.908 164.594 651.213 168.904L664.738 183.637ZM678.4 151.319C678.4 138.538 673.95 127.416 664.866 118.779L651.085 133.273C655.901 137.853 658.4 143.593 658.4 151.319H678.4ZM664.928 118.838C655.992 110.196 644.845 105.943 632.17 105.943V125.943C640.003 125.943 646.059 128.413 651.023 133.214L664.928 118.838ZM632.17 105.943H599.016V125.943H632.17V105.943ZM793.812 206.178V196.178H783.812V206.178H793.812ZM809.193 206.178H819.193V196.178H809.193V206.178ZM809.193 236.769H799.193V268.492L817.386 242.503L809.193 236.769ZM820.302 223.609L827.373 230.68L820.302 223.609ZM862.001 202.247H872.001V191.756L861.522 192.259L862.001 202.247ZM862.001 218.995L862.471 228.984L872.001 228.536V218.995H862.001ZM831.923 235.23L838.966 242.329L838.98 242.315L838.994 242.302L831.923 235.23ZM809.193 287.354L799.197 287.074L799.193 287.214V287.354H809.193ZM809.193 374V384H819.193V374H809.193ZM793.812 374H783.812V384H793.812V374ZM793.812 216.178H809.193V196.178H793.812V216.178ZM799.193 206.178V236.769H819.193V206.178H799.193ZM817.386 242.503C820.219 238.456 823.54 234.513 827.373 230.68L813.231 216.538C808.632 221.137 804.548 225.967 801.001 231.034L817.386 242.503ZM827.373 230.68C839.788 218.265 851.473 212.764 862.48 212.236L861.522 192.259C844.046 193.097 827.931 201.838 813.231 216.538L827.373 230.68ZM852.001 202.247V218.995H872.001V202.247H852.001ZM861.531 209.006C848.351 209.626 836.104 216.907 824.852 228.159L838.994 242.302C848.478 232.818 856.283 229.275 862.471 228.984L861.531 209.006ZM824.88 228.132C808.499 244.385 799.84 264.19 799.197 287.074L819.189 287.635C819.686 269.959 826.181 255.015 838.966 242.329L824.88 228.132ZM799.193 287.354V374H819.193V287.354H799.193ZM809.193 364H793.812V384H809.193V364ZM803.812 374V206.178H783.812V374H803.812ZM946.568 206.178H956.568V196.178H946.568V206.178ZM946.568 374V384H956.568V374H946.568ZM931.188 374H921.188V384H931.188V374ZM931.188 206.178V196.178H921.188V206.178H931.188ZM949.645 151.148L942.573 158.22L942.64 158.286L942.708 158.352L949.645 151.148ZM949.645 172.853L942.708 165.649L942.64 165.715L942.573 165.781L949.645 172.853ZM927.94 172.853L920.869 179.924L920.936 179.99L921.004 180.056L927.94 172.853ZM927.94 151.148L921.004 143.945L920.936 144.011L920.869 144.077L927.94 151.148ZM936.568 206.178V374H956.568V206.178H936.568ZM946.568 364H931.188V384H946.568V364ZM941.188 374V206.178H921.188V374H941.188ZM931.188 216.178H946.568V196.178H931.188V216.178ZM938.878 156.705C940.46 156.705 941.5 157.146 942.573 158.22L956.716 144.077C951.865 139.227 945.727 136.705 938.878 136.705V156.705ZM942.708 158.352C943.856 159.457 944.259 160.457 944.259 161.915H964.259C964.259 154.942 961.586 148.765 956.581 143.945L942.708 158.352ZM944.259 161.915C944.259 163.569 943.796 164.601 942.708 165.649L956.581 180.056C961.645 175.179 964.259 168.92 964.259 161.915H944.259ZM942.573 165.781C941.5 166.855 940.46 167.296 938.878 167.296V187.296C945.727 187.296 951.865 184.774 956.716 179.924L942.573 165.781ZM938.878 167.296C937.287 167.296 936.117 166.843 934.877 165.649L921.004 180.056C925.916 184.786 932.038 187.296 938.878 187.296V167.296ZM935.011 165.781C933.994 164.764 933.497 163.691 933.497 161.915H913.497C913.497 168.797 915.963 175.017 920.869 179.924L935.011 165.781ZM933.497 161.915C933.497 160.333 933.938 159.293 935.011 158.22L920.869 144.077C916.019 148.928 913.497 155.066 913.497 161.915H933.497ZM934.877 158.352C936.117 157.158 937.287 156.705 938.878 156.705V136.705C932.038 136.705 925.916 139.215 921.004 143.945L934.877 158.352ZM1210.41 374V384H1220.41V374H1210.41ZM1195.03 374H1185.03V384H1195.03V374ZM1195.03 339.82H1205.03V309.589L1187 333.857L1195.03 339.82ZM1185.29 351.271L1192.36 358.342L1192.41 358.285L1192.47 358.228L1185.29 351.271ZM1185.29 218.482L1192.47 211.524L1192.41 211.467L1192.36 211.411L1185.29 218.482ZM1195.03 229.933L1187 235.896L1205.03 260.164V229.933H1195.03ZM1195.03 206.178V196.178H1185.03V206.178H1195.03ZM1210.41 206.178H1220.41V196.178H1210.41V206.178ZM1195.03 300.172L1204.85 302.046L1205.03 301.118V300.172H1195.03ZM1195.03 269.752H1205.03V268.813L1204.85 267.891L1195.03 269.752ZM1173.67 230.104L1166.59 237.175L1173.67 230.104ZM1063.95 339.82L1056.88 346.891L1056.89 346.905L1056.9 346.918L1063.95 339.82ZM1173.67 339.649L1166.59 332.578L1173.67 339.649ZM1210.41 364H1195.03V384H1210.41V364ZM1205.03 374V339.82H1185.03V374H1205.03ZM1187 333.857C1184.3 337.488 1181.34 340.973 1178.1 344.313L1192.47 358.228C1196.3 354.277 1199.83 350.128 1203.05 345.784L1187 333.857ZM1178.22 344.199C1161.75 360.664 1142.14 368.785 1118.81 368.785V388.785C1147.43 388.785 1172.14 378.563 1192.36 358.342L1178.22 344.199ZM1118.81 368.785C1095.61 368.785 1076.04 360.674 1059.57 344.199L1045.43 358.342C1065.64 378.554 1090.28 388.785 1118.81 388.785V368.785ZM1059.57 344.199C1043.09 327.725 1034.98 308.163 1034.98 284.962H1014.98C1014.98 313.486 1025.21 338.13 1045.43 358.342L1059.57 344.199ZM1034.98 284.962C1034.98 261.633 1043.1 242.018 1059.57 225.553L1045.43 211.411C1025.21 231.633 1014.98 256.337 1014.98 284.962H1034.98ZM1059.57 225.553C1076.04 209.079 1095.61 200.968 1118.81 200.968V180.968C1090.28 180.968 1065.64 191.199 1045.43 211.411L1059.57 225.553ZM1118.81 200.968C1142.14 200.968 1161.75 209.089 1178.22 225.553L1192.36 211.411C1172.14 191.19 1147.43 180.968 1118.81 180.968V200.968ZM1178.1 225.44C1181.34 228.78 1184.3 232.265 1187 235.896L1203.05 223.969C1199.83 219.625 1196.3 215.476 1192.47 211.524L1178.1 225.44ZM1205.03 229.933V206.178H1185.03V229.933H1205.03ZM1195.03 216.178H1210.41V196.178H1195.03V216.178ZM1200.41 206.178V374H1220.41V206.178H1200.41ZM1205.03 300.172V269.752H1185.03V300.172H1205.03ZM1204.85 267.891C1201.61 250.771 1193.47 235.767 1180.74 223.032L1166.59 237.175C1176.65 247.226 1182.75 258.655 1185.2 271.613L1204.85 267.891ZM1180.74 223.032C1163.71 206.005 1142.88 197.374 1118.81 197.374V217.374C1137.57 217.374 1153.32 223.896 1166.59 237.175L1180.74 223.032ZM1118.81 197.374C1094.73 197.374 1073.9 206.005 1056.88 223.032L1071.02 237.175C1084.3 223.896 1100.04 217.374 1118.81 217.374V197.374ZM1056.88 223.032C1039.85 240.06 1031.22 260.889 1031.22 284.962H1051.22C1051.22 266.196 1057.74 250.453 1071.02 237.175L1056.88 223.032ZM1031.22 284.962C1031.22 309.035 1039.85 329.864 1056.88 346.891L1071.02 332.749C1057.74 319.471 1051.22 303.728 1051.22 284.962H1031.22ZM1056.9 346.918C1073.94 363.823 1094.76 372.379 1118.81 372.379V352.379C1100.02 352.379 1084.27 345.896 1070.99 332.723L1056.9 346.918ZM1118.81 372.379C1142.88 372.379 1163.71 363.748 1180.74 346.72L1166.59 332.578C1153.32 345.857 1137.57 352.379 1118.81 352.379V372.379ZM1180.74 346.72C1193.46 334 1201.6 319.062 1204.85 302.046L1185.2 298.297C1182.76 311.132 1176.66 322.512 1166.59 332.578L1180.74 346.72ZM1305.06 243.604L1295.91 239.559L1295.06 241.492V243.604H1305.06ZM1305.06 374V384H1315.06V374H1305.06ZM1289.68 374H1279.68V384H1289.68V374ZM1289.68 206.178V196.178H1279.68V206.178H1289.68ZM1305.06 206.178H1315.06V196.178H1305.06V206.178ZM1305.06 216.944H1295.06V240.948L1312.1 224.044L1305.06 216.944ZM1421.44 261.72H1431.44V261.629V261.539L1421.44 261.72ZM1421.44 374V384H1431.44V374H1421.44ZM1406.06 374H1396.06V384H1406.06V374ZM1390.51 226.686L1383.48 233.796L1383.52 233.835L1383.56 233.874L1390.51 226.686ZM1317.36 226.344L1310.41 219.154L1310.35 219.213L1310.29 219.273L1317.36 226.344ZM1295.06 243.604V374H1315.06V243.604H1295.06ZM1305.06 364H1289.68V384H1305.06V364ZM1299.68 374V206.178H1279.68V374H1299.68ZM1289.68 216.178H1305.06V196.178H1289.68V216.178ZM1295.06 206.178V216.944H1315.06V206.178H1295.06ZM1312.1 224.044C1324.37 211.873 1338.18 206.095 1353.94 206.095V186.095C1332.55 186.095 1313.77 194.216 1298.02 209.844L1312.1 224.044ZM1353.94 206.095C1371.48 206.095 1384.93 211.498 1395.23 221.794L1409.37 207.652C1394.83 193.11 1376.04 186.095 1353.94 186.095V206.095ZM1395.23 221.794C1405.67 232.232 1411.14 245.358 1411.44 261.9L1431.44 261.539C1431.05 240.256 1423.77 222.051 1409.37 207.652L1395.23 221.794ZM1411.44 261.72V374H1431.44V261.72H1411.44ZM1421.44 364H1406.06V384H1421.44V364ZM1416.06 374V263.087H1396.06V374H1416.06ZM1416.06 263.087C1416.06 246.096 1409.75 231.38 1397.46 219.497L1383.56 233.874C1392 242.043 1396.06 251.594 1396.06 263.087H1416.06ZM1397.54 219.575C1385.46 207.627 1370.76 201.476 1353.94 201.476V221.476C1365.37 221.476 1375.05 225.464 1383.48 233.796L1397.54 219.575ZM1353.94 201.476C1337.19 201.476 1322.51 207.458 1310.41 219.154L1324.31 233.534C1332.72 225.405 1342.43 221.476 1353.94 221.476V201.476ZM1310.29 219.273C1304.02 225.542 1299.13 232.29 1295.91 239.559L1314.2 247.65C1316.23 243.07 1319.54 238.31 1324.43 233.415L1310.29 219.273ZM1500.88 374H1490.88V384H1500.88V374ZM1500.88 100.562V90.5625H1490.88V100.562H1500.88ZM1516.26 100.562H1526.26V90.5625H1516.26V100.562ZM1516.26 358.619H1506.26V368.619H1516.26V358.619ZM1622.22 358.619H1632.22V348.619H1622.22V358.619ZM1622.22 374V384H1632.22V374H1622.22ZM1510.88 374V100.562H1490.88V374H1510.88ZM1500.88 110.562H1516.26V90.5625H1500.88V110.562ZM1506.26 100.562V358.619H1526.26V100.562H1506.26ZM1516.26 368.619H1622.22V348.619H1516.26V368.619ZM1612.22 358.619V374H1632.22V358.619H1612.22ZM1622.22 364H1500.88V384H1622.22V364ZM1712.25 342.555L1705.18 335.484L1697.79 342.882L1705.51 349.938L1712.25 342.555ZM1818.72 339.649L1811.65 332.578L1818.72 339.649ZM1824.19 333.668L1827.56 324.253L1820.98 321.898L1816.51 327.266L1824.19 333.668ZM1840.43 339.479L1848.54 345.333L1856.33 334.547L1843.8 330.063L1840.43 339.479ZM1822.14 210.963L1828.54 203.281L1828.47 203.219L1828.4 203.159L1822.14 210.963ZM1833.25 221.559L1840.32 228.63L1846.99 221.962L1840.73 214.915L1833.25 221.559ZM1810.35 222.755L1817.42 229.826L1825.47 221.773L1816.45 214.829L1810.35 222.755ZM1709.18 230.104L1716.22 237.201L1716.24 237.188L1716.25 237.175L1709.18 230.104ZM1701.83 331.275L1693.9 337.372L1700.85 346.4L1708.9 338.346L1701.83 331.275ZM1705.51 349.938C1721.86 364.87 1741.48 372.379 1763.87 372.379V352.379C1746.38 352.379 1731.59 346.672 1719 335.171L1705.51 349.938ZM1763.87 372.379C1787.94 372.379 1808.77 363.748 1825.8 346.72L1811.65 332.578C1798.37 345.857 1782.63 352.379 1763.87 352.379V372.379ZM1825.8 346.72C1827.94 344.575 1829.97 342.359 1831.88 340.07L1816.51 327.266C1815 329.079 1813.38 330.85 1811.65 332.578L1825.8 346.72ZM1820.82 343.083L1837.06 348.894L1843.8 330.063L1827.56 324.253L1820.82 343.083ZM1832.32 333.624C1829.69 337.272 1826.68 340.798 1823.27 344.199L1837.42 358.342C1841.53 354.224 1845.25 349.889 1848.54 345.333L1832.32 333.624ZM1823.27 344.199C1806.81 360.664 1787.19 368.785 1763.87 368.785V388.785C1792.49 388.785 1817.2 378.563 1837.42 358.342L1823.27 344.199ZM1763.87 368.785C1740.66 368.785 1721.1 360.674 1704.63 344.199L1690.49 358.342C1710.7 378.554 1735.34 388.785 1763.87 388.785V368.785ZM1704.63 344.199C1688.16 327.735 1680.04 308.12 1680.04 284.791H1660.04C1660.04 313.416 1670.27 338.12 1690.49 358.342L1704.63 344.199ZM1680.04 284.791C1680.04 261.59 1688.15 242.028 1704.63 225.553L1690.49 211.411C1670.27 231.623 1660.04 256.267 1660.04 284.791H1680.04ZM1704.63 225.553C1721.1 209.079 1740.66 200.968 1763.87 200.968V180.968C1735.34 180.968 1710.7 191.199 1690.49 211.411L1704.63 225.553ZM1763.87 200.968C1783.91 200.968 1801.11 206.922 1815.89 218.766L1828.4 203.159C1809.91 188.344 1788.25 180.968 1763.87 180.968V200.968ZM1815.74 218.645C1818.22 220.715 1820.74 223.015 1823.27 225.553L1837.42 211.411C1834.49 208.481 1831.53 205.769 1828.54 203.281L1815.74 218.645ZM1823.27 225.553C1824.17 226.448 1825 227.331 1825.78 228.202L1840.73 214.915C1839.68 213.735 1838.57 212.567 1837.42 211.411L1823.27 225.553ZM1826.18 214.488L1814.56 226.109L1828.7 240.251L1840.32 228.63L1826.18 214.488ZM1814.56 226.109L1705.18 335.484L1719.33 349.626L1828.7 240.251L1814.56 226.109ZM1816.45 214.829C1801.28 203.16 1783.61 197.374 1763.87 197.374V217.374C1779.44 217.374 1792.76 221.842 1804.25 230.681L1816.45 214.829ZM1763.87 197.374C1739.89 197.374 1719.12 206.016 1702.11 223.032L1716.25 237.175C1729.54 223.885 1745.23 217.374 1763.87 217.374V197.374ZM1702.13 223.006C1685.08 239.929 1676.45 260.716 1676.45 284.791H1696.45C1696.45 266.027 1702.97 250.356 1716.22 237.201L1702.13 223.006ZM1676.45 284.791C1676.45 304.538 1682.23 322.203 1693.9 337.372L1709.76 325.178C1700.92 313.688 1696.45 300.363 1696.45 284.791H1676.45ZM1708.9 338.346L1817.42 229.826L1803.28 215.684L1694.76 324.204L1708.9 338.346ZM1990.28 329.566L2000.23 330.508L2000.28 330.038V329.566H1990.28ZM1990.28 206.178V196.178H1980.28V206.178H1990.28ZM2005.66 206.178H2015.66V196.178H2005.66V206.178ZM2015.74 350.929L2008.67 358L2008.7 358.029L2008.73 358.059L2015.74 350.929ZM2064.62 350.929L2071.63 358.059L2071.66 358.029L2071.69 358L2064.62 350.929ZM2074.7 328.199L2084.69 328.711L2085.23 318.199H2074.7V328.199ZM2074.53 328.199H2064.53V338.199H2074.53V328.199ZM2074.53 206.178V196.178H2064.53V206.178H2074.53ZM2089.91 206.178H2099.91V196.178H2089.91V206.178ZM2089.91 328.199L2099.91 328.547V328.373V328.199H2089.91ZM2075.39 361.695L2068.32 354.624L2068.29 354.645L2068.27 354.666L2075.39 361.695ZM2004.98 361.695L2012.09 354.666L2012.07 354.645L2012.05 354.624L2004.98 361.695ZM1998.14 353.492L2006.41 347.869L1998.14 335.708L1989.87 347.869L1998.14 353.492ZM1991.13 361.695L1984.21 354.475L1984.12 354.569L1984.02 354.666L1991.13 361.695ZM1920.72 361.695L1927.84 354.666L1927.82 354.645L1927.79 354.624L1920.72 361.695ZM1906.2 328.199H1896.2V328.373V328.547L1906.2 328.199ZM1906.2 206.178V196.178H1896.2V206.178H1906.2ZM1921.58 206.178H1931.58V196.178H1921.58V206.178ZM1921.58 328.199V338.199H1931.58V328.199H1921.58ZM1921.41 328.199V318.199H1910.88L1911.42 328.711L1921.41 328.199ZM1931.66 350.929L1938.73 343.858L1938.7 343.826L1938.67 343.794L1931.66 350.929ZM1980.37 350.929L1987.38 358.059L1987.41 358.029L1987.44 358L1980.37 350.929ZM2000.28 329.566V206.178H1980.28V329.566H2000.28ZM1990.28 216.178H2005.66V196.178H1990.28V216.178ZM1995.66 206.178V325.807H2015.66V206.178H1995.66ZM1995.66 325.807C1995.66 338.324 1999.96 349.291 2008.67 358L2022.81 343.858C2018.08 339.122 2015.66 333.342 2015.66 325.807H1995.66ZM2008.73 358.059C2017.41 366.592 2028.06 371.012 2040.18 371.012V351.012C2033.39 351.012 2027.75 348.71 2022.75 343.798L2008.73 358.059ZM2040.18 371.012C2052.3 371.012 2062.95 366.592 2071.63 358.059L2057.61 343.798C2052.61 348.71 2046.97 351.012 2040.18 351.012V371.012ZM2071.69 358C2079.72 349.975 2084.11 340.059 2084.69 328.711L2064.72 327.687C2064.39 334.113 2062.06 339.349 2057.55 343.858L2071.69 358ZM2074.7 318.199H2074.53V338.199H2074.7V318.199ZM2084.53 328.199V206.178H2064.53V328.199H2084.53ZM2074.53 216.178H2089.91V196.178H2074.53V216.178ZM2079.91 206.178V328.199H2099.91V206.178H2079.91ZM2079.92 327.852C2079.55 338.436 2075.74 347.195 2068.32 354.624L2082.46 368.766C2093.49 357.739 2099.36 344.167 2099.91 328.547L2079.92 327.852ZM2068.27 354.666C2060.47 362.562 2051.3 366.393 2040.18 366.393V386.393C2056.64 386.393 2070.93 380.425 2082.5 368.725L2068.27 354.666ZM2040.18 366.393C2029.07 366.393 2019.89 362.562 2012.09 354.666L1997.86 368.725C2009.43 380.425 2023.73 386.393 2040.18 386.393V366.393ZM2012.05 354.624C2009.84 352.414 2007.97 350.161 2006.41 347.869L1989.87 359.115C1992.19 362.52 1994.87 365.735 1997.91 368.766L2012.05 354.624ZM1989.87 347.869C1988.36 350.085 1986.49 352.291 1984.21 354.475L1998.05 368.915C2001.24 365.858 2004.04 362.596 2006.41 359.115L1989.87 347.869ZM1984.02 354.666C1976.22 362.562 1967.04 366.393 1955.93 366.393V386.393C1972.38 386.393 1986.68 380.425 1998.25 368.725L1984.02 354.666ZM1955.93 366.393C1944.81 366.393 1935.64 362.562 1927.84 354.666L1913.61 368.725C1925.18 380.425 1939.47 386.393 1955.93 386.393V366.393ZM1927.79 354.624C1920.37 347.195 1916.56 338.436 1916.19 327.852L1896.2 328.547C1896.75 344.167 1902.62 357.739 1913.65 368.766L1927.79 354.624ZM1916.2 328.199V206.178H1896.2V328.199H1916.2ZM1906.2 216.178H1921.58V196.178H1906.2V216.178ZM1911.58 206.178V328.199H1931.58V206.178H1911.58ZM1921.58 318.199H1921.41V338.199H1921.58V318.199ZM1911.42 328.711C1912.01 340.115 1916.5 350.051 1924.65 358.063L1938.67 343.794C1934.07 339.274 1931.72 334.057 1931.39 327.687L1911.42 328.711ZM1924.59 358C1933.18 366.586 1943.8 371.012 1955.93 371.012V351.012C1949.14 351.012 1943.59 348.715 1938.73 343.858L1924.59 358ZM1955.93 371.012C1968.05 371.012 1978.7 366.592 1987.38 358.059L1973.36 343.798C1968.36 348.71 1962.72 351.012 1955.93 351.012V371.012ZM1987.44 358C1994.95 350.49 1999.23 341.179 2000.23 330.508L1980.32 328.625C1979.74 334.816 1977.41 339.746 1973.3 343.858L1987.44 358ZM2229.68 358.961H2239.68L2220.66 354.637L2229.68 358.961ZM2191.74 438.087V448.087H2198.04L2200.76 442.41L2191.74 438.087ZM2176.7 438.087L2167.68 433.784L2160.86 448.087H2176.7V438.087ZM2221.99 343.067L2231.02 347.37L2233.07 343.06L2231.01 338.754L2221.99 343.067ZM2156.54 206.178V196.178H2140.67L2147.51 210.491L2156.54 206.178ZM2173.97 206.178L2183.04 201.976L2180.36 196.178H2173.97V206.178ZM2229.68 326.49L2220.61 330.692L2229.68 350.288L2238.75 330.692L2229.68 326.49ZM2285.39 206.178V196.178H2279L2276.32 201.976L2285.39 206.178ZM2302.65 206.178L2311.68 210.484L2318.51 196.178H2302.65V206.178ZM2229.68 359.132H2219.68L2238.71 363.438L2229.68 359.132ZM2220.66 354.637L2182.72 433.763L2200.76 442.41L2238.7 363.284L2220.66 354.637ZM2191.74 428.087H2176.7V448.087H2191.74V428.087ZM2185.73 442.389L2231.02 347.37L2212.96 338.765L2167.68 433.784L2185.73 442.389ZM2231.01 338.754L2165.56 201.864L2147.51 210.491L2212.97 347.381L2231.01 338.754ZM2156.54 216.178H2173.97V196.178H2156.54V216.178ZM2164.89 210.38L2220.61 330.692L2238.75 322.288L2183.04 201.976L2164.89 210.38ZM2238.75 330.692L2294.47 210.38L2276.32 201.976L2220.61 322.288L2238.75 330.692ZM2285.39 216.178H2302.65V196.178H2285.39V216.178ZM2293.63 201.872L2220.66 354.826L2238.71 363.438L2311.68 210.484L2293.63 201.872ZM2239.68 359.132V358.961H2219.68V359.132H2239.68ZM2384.66 243.604L2375.51 239.559L2374.66 241.492V243.604H2384.66ZM2384.66 374V384H2394.66V374H2384.66ZM2369.28 374H2359.28V384H2369.28V374ZM2369.28 206.178V196.178H2359.28V206.178H2369.28ZM2384.66 206.178H2394.66V196.178H2384.66V206.178ZM2384.66 216.944H2374.66V240.948L2391.7 224.044L2384.66 216.944ZM2501.04 261.72H2511.04V261.629V261.539L2501.04 261.72ZM2501.04 374V384H2511.04V374H2501.04ZM2485.66 374H2475.66V384H2485.66V374ZM2470.11 226.686L2463.08 233.796L2463.12 233.835L2463.16 233.874L2470.11 226.686ZM2396.96 226.344L2390.01 219.154L2389.95 219.213L2389.89 219.273L2396.96 226.344ZM2374.66 243.604V374H2394.66V243.604H2374.66ZM2384.66 364H2369.28V384H2384.66V364ZM2379.28 374V206.178H2359.28V374H2379.28ZM2369.28 216.178H2384.66V196.178H2369.28V216.178ZM2374.66 206.178V216.944H2394.66V206.178H2374.66ZM2391.7 224.044C2403.97 211.873 2417.78 206.095 2433.54 206.095V186.095C2412.15 186.095 2393.37 194.216 2377.62 209.844L2391.7 224.044ZM2433.54 206.095C2451.08 206.095 2464.53 211.498 2474.83 221.794L2488.97 207.652C2474.43 193.11 2455.64 186.095 2433.54 186.095V206.095ZM2474.83 221.794C2485.27 232.232 2490.74 245.358 2491.04 261.9L2511.04 261.539C2510.65 240.256 2503.37 222.051 2488.97 207.652L2474.83 221.794ZM2491.04 261.72V374H2511.04V261.72H2491.04ZM2501.04 364H2485.66V384H2501.04V364ZM2495.66 374V263.087H2475.66V374H2495.66ZM2495.66 263.087C2495.66 246.096 2489.35 231.38 2477.06 219.497L2463.16 233.874C2471.6 242.043 2475.66 251.594 2475.66 263.087H2495.66ZM2477.14 219.575C2465.06 207.627 2450.36 201.476 2433.54 201.476V221.476C2444.97 221.476 2454.65 225.464 2463.08 233.796L2477.14 219.575ZM2433.54 201.476C2416.79 201.476 2402.11 207.458 2390.01 219.154L2403.91 233.534C2412.32 225.405 2422.03 221.476 2433.54 221.476V201.476ZM2389.89 219.273C2383.62 225.542 2378.73 232.29 2375.51 239.559L2393.8 247.65C2395.83 243.07 2399.14 238.31 2404.03 233.415L2389.89 219.273Z" fill="white"/>
</g>
<defs>
<filter id="filter0_i_29_2" x="0" y="-1" width="500" height="500" filterUnits="userSpaceOnUse" color-interpolation-filters="sRGB">
<feFlood flood-opacity="0" result="BackgroundImageFix"/>
<feBlend mode="normal" in="SourceGraphic" in2="BackgroundImageFix" result="shape"/>
<feColorMatrix in="SourceAlpha" type="matrix" values="0 0 0 0 0 0 0 0 0 0 0 0 0 0 0 0 0 0 127 0" result="hardAlpha"/>
<feOffset/>
<feGaussianBlur stdDeviation="3"/>
<feComposite in2="hardAlpha" operator="arithmetic" k2="-1" k3="1"/>
<feColorMatrix type="matrix" values="0 0 0 0 0 0 0 0 0 0 0 0 0 0 0 0 0 0 0.3 0"/>
<feBlend mode="normal" in2="shape" result="effect1_innerShadow_29_2"/>
</filter>
<filter id="filter1_d_29_2" x="16.5711" y="8.06274" width="464.636" height="500.082" filterUnits="userSpaceOnUse" color-interpolation-filters="sRGB">
<feFlood flood-opacity="0" result="BackgroundImageFix"/>
<feColorMatrix in="SourceAlpha" type="matrix" values="0 0 0 0 0 0 0 0 0 0 0 0 0 0 0 0 0 0 127 0" result="hardAlpha"/>
<feOffset dx="4" dy="4"/>
<feGaussianBlur stdDeviation="2.5"/>
<feColorMatrix type="matrix" values="0 0 0 0 0 0 0 0 0 0 0 0 0 0 0 0 0 0 0.25 0"/>
<feBlend mode="normal" in2="BackgroundImageFix" result="effect1_dropShadow_29_2"/>
<feBlend mode="normal" in="SourceGraphic" in2="effect1_dropShadow_29_2" result="shape"/>
</filter>
<clipPath id="clip0_29_2">
<rect width="2527" height="511" fill="white"/>
</clipPath>
</defs>
</svg>
